<svg xmlns="http://www.w3.org/2000/svg" width="1600" height="900" viewBox="0 0 1600 900" role="img" aria-labelledby="title description"><title id="title">Optimized ORT–TensorRT performance-quality Pareto frontier</title><desc id="description">Scatter plot of 28 optimized half-precision configurations by median inference latency and mean geometrically correct correspondences per MegaDepth-1500 image pair at a three-pixel epipolar threshold. Eight non-dominated operating points form the Pareto frontier.</desc><defs>
          <style>
            text { font-family: Inter, ui-sans-serif, system-ui, -apple-system, BlinkMacSystemFont, "Segoe UI", sans-serif; }
            .eyebrow { font-size: 15px; font-weight: 500; letter-spacing: 2.1px; fill: #747C7A; }
            .title { font-size: 43px; font-weight: 500; letter-spacing: -1.15px; fill: #171A1B; }
            .subtitle { font-size: 19px; font-weight: 400; fill: #66706E; }
            .axis-title { font-size: 14px; font-weight: 500; letter-spacing: 1.35px; fill: #747C7A; }
            .tick { font-size: 14px; font-weight: 400; fill: #737B79; }
            .legend { font-size: 14px; font-weight: 400; fill: #596260; }
            .front-label { font-size: 14px; font-weight: 500; fill: #303635; }
            .front-value { font-size: 13px; font-weight: 400; fill: #6B7472; }
            .direction { font-size: 13px; font-weight: 500; letter-spacing: 1px; fill: #5B7F79; }
            .note { font-size: 14px; font-weight: 400; fill: #737B79; }
          </style>
          <filter id="point-shadow" x="-80%" y="-80%" width="260%" height="260%">
            <feDropShadow dx="0" dy="3" stdDeviation="4" flood-color="#1E2524" flood-opacity="0.12"/>
          </filter>
          <marker id="arrow" markerWidth="8" markerHeight="8" refX="6" refY="4" orient="auto">
            <path d="M8 4 L0 0 L0 8 Z" fill="#5B7F79"/>
          </marker>
        </defs><rect width="1600" height="900" fill="#F4F2ED"/><path d="M0 812 C360 765, 755 870, 1120 808 S1470 768, 1600 802 L1600 900 L0 900 Z" fill="#ECE9E2"/><circle cx="1462" cy="54" r="151" fill="#E6ECEA" opacity="0.68"/><circle cx="1496" cy="25" r="67" fill="#F2E5DF" opacity="0.82"/><text x="62.00" y="60.00" class="eyebrow" >OPTIMIZED ORT–TENSORRT · FP16</text><text x="62.00" y="108.00" class="title" >Eight operating points define the frontier</text><text x="62.00" y="146.00" class="subtitle" >Median inference latency vs mean correspondences within 3 px · MegaDepth-1500</text><circle cx="746" cy="182" r="6" fill="#4F8E87"/><text x="759.00" y="187.00" class="legend" >512²</text><circle cx="859" cy="182" r="6" fill="#68839C"/><text x="872.00" y="187.00" class="legend" >768²</text><circle cx="972" cy="182" r="6" fill="#D8A394"/><text x="985.00" y="187.00" class="legend" >1,024²</text><circle cx="1085" cy="182" r="6" fill="#D5775E"/><text x="1098.00" y="187.00" class="legend" >1,280²</text><circle cx="1215" cy="182" r="10" fill="#4F8E87" stroke="#FCFBF8" stroke-width="2"/><circle cx="1215" cy="182" r="14" fill="none" stroke="#35413F" stroke-width="1.7"/><text x="1236.00" y="187.00" class="legend" >Pareto frontier</text><circle cx="1395" cy="182" r="5" fill="#8E9694" opacity="0.42"/><text x="1408.00" y="187.00" class="legend" >dominated</text><line x1="192.66" y1="235" x2="192.66" y2="730" stroke="#DDD9D2" stroke-width="1"/><text x="192.66" y="759.00" class="tick" text-anchor="middle">10</text><line x1="405.94" y1="235" x2="405.94" y2="730" stroke="#DDD9D2" stroke-width="1"/><text x="405.94" y="759.00" class="tick" text-anchor="middle">20</text><line x1="619.22" y1="235" x2="619.22" y2="730" stroke="#DDD9D2" stroke-width="1"/><text x="619.22" y="759.00" class="tick" text-anchor="middle">30</text><line x1="832.50" y1="235" x2="832.50" y2="730" stroke="#DDD9D2" stroke-width="1"/><text x="832.50" y="759.00" class="tick" text-anchor="middle">40</text><line x1="1045.78" y1="235" x2="1045.78" y2="730" stroke="#DDD9D2" stroke-width="1"/><text x="1045.78" y="759.00" class="tick" text-anchor="middle">50</text><line x1="1259.06" y1="235" x2="1259.06" y2="730" stroke="#DDD9D2" stroke-width="1"/><text x="1259.06" y="759.00" class="tick" text-anchor="middle">60</text><line x1="1472.34" y1="235" x2="1472.34" y2="730" stroke="#DDD9D2" stroke-width="1"/><text x="1472.34" y="759.00" class="tick" text-anchor="middle">70</text><line x1="150" y1="730.00" x2="1515" y2="730.00" stroke="#DDD9D2" stroke-width="1"/><text x="132.00" y="735.00" class="tick" text-anchor="end">0</text><line x1="150" y1="635.71" x2="1515" y2="635.71" stroke="#DDD9D2" stroke-width="1"/><text x="132.00" y="640.71" class="tick" text-anchor="end">200</text><line x1="150" y1="541.43" x2="1515" y2="541.43" stroke="#DDD9D2" stroke-width="1"/><text x="132.00" y="546.43" class="tick" text-anchor="end">400</text><line x1="150" y1="447.14" x2="1515" y2="447.14" stroke="#DDD9D2" stroke-width="1"/><text x="132.00" y="452.14" class="tick" text-anchor="end">600</text><line x1="150" y1="352.86" x2="1515" y2="352.86" stroke="#DDD9D2" stroke-width="1"/><text x="132.00" y="357.86" class="tick" text-anchor="end">800</text><line x1="150" y1="258.57" x2="1515" y2="258.57" stroke="#DDD9D2" stroke-width="1"/><text x="132.00" y="263.57" class="tick" text-anchor="end">1,000</text><text x="832.50" y="800.00" class="axis-title" text-anchor="middle">MEDIAN INFERENCE LATENCY (MS)</text><text x="35" y="482.50" class="axis-title" text-anchor="middle" transform="rotate(-90 35 482.50)">MEAN CORRECT MATCHES PER PAIR (@3 PX)</text><path d="M235 286 L178 243" fill="none" stroke="#5B7F79" stroke-width="1.6" marker-end="url(#arrow)"/><text x="244.00" y="290.00" class="direction" >BETTER</text><circle cx="249.11" cy="673.87" r="6.50" fill="#4F8E87" opacity="0.34" stroke="#FCFBF8" stroke-width="1.5"/><circle cx="437.38" cy="444.19" r="10.50" fill="#4F8E87" opacity="0.34" stroke="#FCFBF8" stroke-width="1.5"/><circle cx="408.79" cy="673.08" r="6.50" fill="#68839C" opacity="0.34" stroke="#FCFBF8" stroke-width="1.5"/><circle cx="419.90" cy="616.80" r="7.50" fill="#68839C" opacity="0.34" stroke="#FCFBF8" stroke-width="1.5"/><circle cx="446.29" cy="555.77" r="8.50" fill="#68839C" opacity="0.34" stroke="#FCFBF8" stroke-width="1.5"/><circle cx="528.16" cy="491.06" r="9.50" fill="#68839C" opacity="0.34" stroke="#FCFBF8" stroke-width="1.5"/><circle cx="553.38" cy="419.76" r="10.50" fill="#68839C" opacity="0.34" stroke="#FCFBF8" stroke-width="1.5"/><circle cx="739.09" cy="672.24" r="6.50" fill="#D8A394" opacity="0.34" stroke="#FCFBF8" stroke-width="1.5"/><circle cx="897.91" cy="616.11" r="7.50" fill="#D8A394" opacity="0.34" stroke="#FCFBF8" stroke-width="1.5"/><circle cx="785.76" cy="556.82" r="8.50" fill="#D8A394" opacity="0.34" stroke="#FCFBF8" stroke-width="1.5"/><circle cx="869.10" cy="493.35" r="9.50" fill="#D8A394" opacity="0.34" stroke="#FCFBF8" stroke-width="1.5"/><circle cx="909.78" cy="422.93" r="10.50" fill="#D8A394" opacity="0.34" stroke="#FCFBF8" stroke-width="1.5"/><circle cx="952.75" cy="345.31" r="11.50" fill="#D8A394" opacity="0.34" stroke="#FCFBF8" stroke-width="1.5"/><circle cx="1170.09" cy="673.15" r="6.50" fill="#D5775E" opacity="0.34" stroke="#FCFBF8" stroke-width="1.5"/><circle cx="1197.04" cy="618.54" r="7.50" fill="#D5775E" opacity="0.34" stroke="#FCFBF8" stroke-width="1.5"/><circle cx="1208.83" cy="560.24" r="8.50" fill="#D5775E" opacity="0.34" stroke="#FCFBF8" stroke-width="1.5"/><circle cx="1319.79" cy="498.38" r="9.50" fill="#D5775E" opacity="0.34" stroke="#FCFBF8" stroke-width="1.5"/><circle cx="1361.58" cy="430.45" r="10.50" fill="#D5775E" opacity="0.34" stroke="#FCFBF8" stroke-width="1.5"/><circle cx="1397.34" cy="355.57" r="11.50" fill="#D5775E" opacity="0.34" stroke="#FCFBF8" stroke-width="1.5"/><circle cx="1459.63" cy="274.10" r="12.50" fill="#D5775E" opacity="0.34" stroke="#FCFBF8" stroke-width="1.5"/><path d="M233.25,615.79 L239.62,553.80 L297.13,495.08 L369.97,402.57 L414.17,369.36 L598.53,344.71 L643.24,268.53 L1010.73,262.27" fill="none" stroke="#3F7973" stroke-width="3" stroke-linecap="round" stroke-linejoin="round" opacity="0.82"/><circle cx="233.25" cy="615.79" r="11.50" fill="none" stroke="#35413F" stroke-width="1.7"/><circle cx="233.25" cy="615.79" r="7.50" fill="#4F8E87" stroke="#FCFBF8" stroke-width="3" filter="url(#point-shadow)"/><line x1="233.25" y1="615.79" x2="246.25" y2="638.79" stroke="#8A9290" stroke-width="1.1"/><text x="251.25" y="643.79" class="front-label" text-anchor="start">512² · K=1,024</text><text x="251.25" y="663.79" class="front-value" text-anchor="start">11.9 ms · 242 correct</text><circle cx="239.62" cy="553.80" r="12.50" fill="none" stroke="#35413F" stroke-width="1.7"/><circle cx="239.62" cy="553.80" r="8.50" fill="#4F8E87" stroke="#FCFBF8" stroke-width="3" filter="url(#point-shadow)"/><line x1="239.62" y1="553.80" x2="254.62" y2="534.80" stroke="#8A9290" stroke-width="1.1"/><text x="259.62" y="539.80" class="front-label" text-anchor="start">512² · K=1,536</text><text x="259.62" y="559.80" class="front-value" text-anchor="start">12.2 ms · 374 correct</text><circle cx="297.13" cy="495.08" r="13.50" fill="none" stroke="#35413F" stroke-width="1.7"/><circle cx="297.13" cy="495.08" r="9.50" fill="#4F8E87" stroke="#FCFBF8" stroke-width="3" filter="url(#point-shadow)"/><line x1="297.13" y1="495.08" x2="312.13" y2="474.08" stroke="#8A9290" stroke-width="1.1"/><text x="317.13" y="479.08" class="front-label" text-anchor="start">512² · K=2,048</text><text x="317.13" y="499.08" class="front-value" text-anchor="start">14.9 ms · 498 correct</text><circle cx="369.97" cy="402.57" r="15.50" fill="none" stroke="#35413F" stroke-width="1.7"/><circle cx="369.97" cy="402.57" r="11.50" fill="#4F8E87" stroke="#FCFBF8" stroke-width="3" filter="url(#point-shadow)"/><line x1="369.97" y1="402.57" x2="355.97" y2="379.57" stroke="#8A9290" stroke-width="1.1"/><text x="350.97" y="384.57" class="front-label" text-anchor="end">512² · K=3,072</text><text x="350.97" y="404.57" class="front-value" text-anchor="end">18.3 ms · 695 correct</text><circle cx="414.17" cy="369.36" r="16.50" fill="none" stroke="#35413F" stroke-width="1.7"/><circle cx="414.17" cy="369.36" r="12.50" fill="#4F8E87" stroke="#FCFBF8" stroke-width="3" filter="url(#point-shadow)"/><line x1="414.17" y1="369.36" x2="429.17" y2="391.36" stroke="#8A9290" stroke-width="1.1"/><text x="434.17" y="396.36" class="front-label" text-anchor="start">512² · K=3,584</text><text x="434.17" y="416.36" class="front-value" text-anchor="start">20.4 ms · 765 correct</text><circle cx="598.53" cy="344.71" r="15.50" fill="none" stroke="#35413F" stroke-width="1.7"/><circle cx="598.53" cy="344.71" r="11.50" fill="#68839C" stroke="#FCFBF8" stroke-width="3" filter="url(#point-shadow)"/><line x1="598.53" y1="344.71" x2="583.53" y2="319.71" stroke="#8A9290" stroke-width="1.1"/><text x="578.53" y="324.71" class="front-label" text-anchor="end">768² · K=3,072</text><text x="578.53" y="344.71" class="front-value" text-anchor="end">29.0 ms · 817 correct</text><circle cx="643.24" cy="268.53" r="16.50" fill="none" stroke="#35413F" stroke-width="1.7"/><circle cx="643.24" cy="268.53" r="12.50" fill="#68839C" stroke="#FCFBF8" stroke-width="3" filter="url(#point-shadow)"/><line x1="643.24" y1="268.53" x2="630.24" y2="243.53" stroke="#8A9290" stroke-width="1.1"/><text x="625.24" y="248.53" class="front-label" text-anchor="end">768² · K=3,584</text><text x="625.24" y="268.53" class="front-value" text-anchor="end">31.1 ms · 979 correct</text><circle cx="1010.73" cy="262.27" r="16.50" fill="none" stroke="#35413F" stroke-width="1.7"/><circle cx="1010.73" cy="262.27" r="12.50" fill="#D8A394" stroke="#FCFBF8" stroke-width="3" filter="url(#point-shadow)"/><line x1="1010.73" y1="262.27" x2="1025.73" y2="282.27" stroke="#8A9290" stroke-width="1.1"/><text x="1030.73" y="287.27" class="front-label" text-anchor="start">1,024² · K=3,584</text><text x="1030.73" y="307.27" class="front-value" text-anchor="start">48.4 ms · 992 correct</text><line x1="150" y1="828" x2="1515" y2="828" stroke="#D8D4CC"/><text x="150.00" y="862.00" class="note" >Correct yield = correspondences with MegaDepth epipolar error ≤ 3 px ÷ 1,500 image pairs. Marker size encodes K.</text></svg>