<svg xmlns="http://www.w3.org/2000/svg" width="1800" height="900" viewBox="0 0 1800 900" role="img" aria-labelledby="title description"><title id="title">Post-optimization matching quality across representative regimes</title><desc id="description">Three paired comparisons of torch.compile and the optimized ONNX Runtime TensorRT deployment in FP16 on MegaDepth-1500. Each panel reports correspondence-weighted epipolar precision at one, three, and five pixels, mean match count, match retention, and zero-match pairs.</desc><defs>
          <style>
            text { font-family: Inter, ui-sans-serif, system-ui, -apple-system, BlinkMacSystemFont, "Segoe UI", sans-serif; }
            .eyebrow { font-size: 15px; font-weight: 500; letter-spacing: 2.1px; fill: #747C7A; }
            .title { font-size: 43px; font-weight: 500; letter-spacing: -1.15px; fill: #171A1B; }
            .subtitle { font-size: 19px; font-weight: 400; fill: #66706E; }
            .panel-label { font-size: 13px; font-weight: 500; letter-spacing: 1.65px; fill: #747C7A; }
            .panel-title { font-size: 27px; font-weight: 500; letter-spacing: -0.4px; fill: #171A1B; }
            .tick { font-size: 14px; font-weight: 400; fill: #7B8381; }
            .threshold { font-size: 17px; font-weight: 500; fill: #4C5553; }
            .point-value { font-size: 13px; font-weight: 500; }
            .metric-label { font-size: 12px; font-weight: 500; letter-spacing: 1.3px; fill: #7A8280; }
            .metric { font-size: 23px; font-weight: 500; letter-spacing: -0.25px; }
            .legend { font-size: 16px; font-weight: 400; fill: #596260; }
            .retention { font-size: 14px; font-weight: 500; fill: #4D6F69; }
          </style>
          <filter id="shadow" x="-15%" y="-15%" width="130%" height="145%">
            <feDropShadow dx="0" dy="7" stdDeviation="12" flood-color="#1E2524" flood-opacity="0.065"/>
          </filter>
        </defs><rect width="1800" height="900" fill="#F4F2ED"/><path d="M0 795 C420 740, 825 870, 1250 790 S1650 750, 1800 785 L1800 900 L0 900 Z" fill="#ECE9E2"/><circle cx="1650" cy="72" r="171" fill="#E6ECEA" opacity="0.68"/><circle cx="1690" cy="38" r="78" fill="#F2E5DF" opacity="0.82"/><text x="62" y="60" class="eyebrow" >MATCH QUALITY · AFTER GRAPH OPTIMIZATION</text><text x="62" y="108" class="title" >Quality stays close across regimes</text><text x="62" y="146" class="subtitle" >Correspondence-weighted epipolar precision and coverage · FP16 · MegaDepth-1500</text><circle cx="1280" cy="118" r="7" fill="#E1785D" stroke="#FCFBF8" stroke-width="2"/><text x="1296" y="124" class="legend" >torch.compile</text><path d="M1451.00 110.00 L1459.00 118.00 L1451.00 126.00 L1443.00 118.00 Z" fill="#4D8F88" stroke="#FCFBF8" stroke-width="2"/><text x="1468" y="124" class="legend" >optimized ORT–TensorRT</text><g filter="url(#shadow)"><rect x="60" y="205" width="520" height="620" rx="25" fill="#FCFBF8" stroke="#DCD9D2"/></g><rect x="60" y="205" width="520" height="7" rx="3.5" fill="#4D8F88" opacity="0.92"/><text x="92" y="247" class="panel-label" >IMAGE-HEAVY</text><text x="92" y="286" class="panel-title" >1,280² · K=512</text><line x1="186.00" y1="342" x2="186.00" y2="592" stroke="#E4E1DA" stroke-width="1"/><text x="186.0" y="329" class="tick" text-anchor="middle">70%</text><line x1="295.67" y1="342" x2="295.67" y2="592" stroke="#E4E1DA" stroke-width="1"/><text x="295.66666666666674" y="329" class="tick" text-anchor="middle">80%</text><line x1="405.33" y1="342" x2="405.33" y2="592" stroke="#E4E1DA" stroke-width="1"/><text x="405.33333333333337" y="329" class="tick" text-anchor="middle">90%</text><line x1="515.00" y1="342" x2="515.00" y2="592" stroke="#E4E1DA" stroke-width="1"/><text x="515.0" y="329" class="tick" text-anchor="middle">100%</text><text x="92" y="398" class="threshold" >@1 px</text><line x1="186" y1="392" x2="515" y2="392" stroke="#EEEAE3" stroke-width="2"/><path d="M269.29 385 L255.09 399" stroke="#A6AEAC" stroke-width="2" stroke-linecap="round"/><circle cx="269.29" cy="385" r="7" fill="#E1785D" stroke="#FCFBF8" stroke-width="2"/><path d="M255.09 391.00 L263.09 399.00 L255.09 407.00 L247.09 399.00 Z" fill="#4D8F88" stroke="#FCFBF8" stroke-width="2"/><text x="269.2880949581594" y="373" class="point-value" fill="#E1785D" text-anchor="middle">77.59%</text><text x="255.0892721339583" y="422" class="point-value" fill="#4D8F88" text-anchor="middle">76.30%</text><text x="92" y="482" class="threshold" >@3 px</text><line x1="186" y1="476" x2="515" y2="476" stroke="#EEEAE3" stroke-width="2"/><path d="M452.59 469 L446.86 483" stroke="#A6AEAC" stroke-width="2" stroke-linecap="round"/><circle cx="452.59" cy="469" r="7" fill="#E1785D" stroke="#FCFBF8" stroke-width="2"/><path d="M446.86 475.00 L454.86 483.00 L446.86 491.00 L438.86 483.00 Z" fill="#4D8F88" stroke="#FCFBF8" stroke-width="2"/><text x="452.5881670355736" y="457" class="point-value" fill="#E1785D" text-anchor="middle">94.31%</text><text x="446.86491475505045" y="506" class="point-value" fill="#4D8F88" text-anchor="middle">93.79%</text><text x="92" y="566" class="threshold" >@5 px</text><line x1="186" y1="560" x2="515" y2="560" stroke="#EEEAE3" stroke-width="2"/><path d="M483.17 553 L478.36 567" stroke="#A6AEAC" stroke-width="2" stroke-linecap="round"/><circle cx="483.17" cy="553" r="7" fill="#E1785D" stroke="#FCFBF8" stroke-width="2"/><path d="M478.36 559.00 L486.36 567.00 L478.36 575.00 L470.36 567.00 Z" fill="#4D8F88" stroke="#FCFBF8" stroke-width="2"/><text x="483.1746181856598" y="541" class="point-value" fill="#E1785D" text-anchor="middle">97.10%</text><text x="478.36218041785924" y="590" class="point-value" fill="#4D8F88" text-anchor="middle">96.66%</text><line x1="92" y1="617" x2="548" y2="617" stroke="#E2DED7"/><text x="92" y="651" class="metric-label" >MEAN MATCHES</text><text x="367" y="651" class="metric-label" >ZERO-MATCH PAIRS</text><text x="92" y="690" class="metric" fill="#E1785D">130.4</text><text x="175" y="690" class="metric" fill="#8A9290">→</text><text x="208" y="690" class="metric" fill="#4D8F88">128.6</text><text x="367" y="690" class="metric" fill="#E1785D">1</text><text x="397" y="690" class="metric" fill="#8A9290">→</text><text x="430" y="690" class="metric" fill="#4D8F88">1</text><text x="92" y="738" class="metric-label" >MATCH RETENTION</text><text x="548" y="738" class="retention" text-anchor="end">98.6%</text><rect x="92" y="770" width="456" height="12" rx="6" fill="#E8E5DE"/><rect x="92" y="770" width="449.55" height="12" rx="6" fill="#4D8F88"/><g filter="url(#shadow)"><rect x="640" y="205" width="520" height="620" rx="25" fill="#FCFBF8" stroke="#DCD9D2"/></g><rect x="640" y="205" width="520" height="7" rx="3.5" fill="#4D8F88" opacity="0.92"/><text x="672" y="247" class="panel-label" >SEQUENCE-HEAVY</text><text x="672" y="286" class="panel-title" >512² · K=3,584</text><line x1="766.00" y1="342" x2="766.00" y2="592" stroke="#E4E1DA" stroke-width="1"/><text x="766.0" y="329" class="tick" text-anchor="middle">70%</text><line x1="875.67" y1="342" x2="875.67" y2="592" stroke="#E4E1DA" stroke-width="1"/><text x="875.6666666666667" y="329" class="tick" text-anchor="middle">80%</text><line x1="985.33" y1="342" x2="985.33" y2="592" stroke="#E4E1DA" stroke-width="1"/><text x="985.3333333333334" y="329" class="tick" text-anchor="middle">90%</text><line x1="1095.00" y1="342" x2="1095.00" y2="592" stroke="#E4E1DA" stroke-width="1"/><text x="1095.0" y="329" class="tick" text-anchor="middle">100%</text><text x="672" y="398" class="threshold" >@1 px</text><line x1="766" y1="392" x2="1095" y2="392" stroke="#EEEAE3" stroke-width="2"/><path d="M972.20 385 L970.57 399" stroke="#A6AEAC" stroke-width="2" stroke-linecap="round"/><circle cx="972.20" cy="385" r="7" fill="#E1785D" stroke="#FCFBF8" stroke-width="2"/><path d="M970.57 391.00 L978.57 399.00 L970.57 407.00 L962.57 399.00 Z" fill="#4D8F88" stroke="#FCFBF8" stroke-width="2"/><text x="972.2022191344972" y="373" class="point-value" fill="#E1785D" text-anchor="middle">88.80%</text><text x="970.5650990567924" y="422" class="point-value" fill="#4D8F88" text-anchor="middle">88.65%</text><text x="672" y="482" class="threshold" >@3 px</text><line x1="766" y1="476" x2="1095" y2="476" stroke="#EEEAE3" stroke-width="2"/><path d="M1091.83 469 L1091.89 483" stroke="#A6AEAC" stroke-width="2" stroke-linecap="round"/><circle cx="1091.83" cy="469" r="7" fill="#E1785D" stroke="#FCFBF8" stroke-width="2"/><path d="M1091.89 475.00 L1099.89 483.00 L1091.89 491.00 L1083.89 483.00 Z" fill="#4D8F88" stroke="#FCFBF8" stroke-width="2"/><text x="1091.8322157111502" y="457" class="point-value" fill="#E1785D" text-anchor="middle">99.71%</text><text x="1091.8875073792199" y="506" class="point-value" fill="#4D8F88" text-anchor="middle">99.72%</text><text x="672" y="566" class="threshold" >@5 px</text><line x1="766" y1="560" x2="1095" y2="560" stroke="#EEEAE3" stroke-width="2"/><path d="M1094.05 553 L1094.08 567" stroke="#A6AEAC" stroke-width="2" stroke-linecap="round"/><circle cx="1094.05" cy="553" r="7" fill="#E1785D" stroke="#FCFBF8" stroke-width="2"/><path d="M1094.08 559.00 L1102.08 567.00 L1094.08 575.00 L1086.08 567.00 Z" fill="#4D8F88" stroke="#FCFBF8" stroke-width="2"/><text x="1094.0497593588273" y="541" class="point-value" fill="#E1785D" text-anchor="middle">99.91%</text><text x="1094.0832155844487" y="590" class="point-value" fill="#4D8F88" text-anchor="middle">99.92%</text><line x1="672" y1="617" x2="1128" y2="617" stroke="#E2DED7"/><text x="672" y="651" class="metric-label" >MEAN MATCHES</text><text x="947" y="651" class="metric-label" >ZERO-MATCH PAIRS</text><text x="672" y="690" class="metric" fill="#E1785D">772.5</text><text x="755" y="690" class="metric" fill="#8A9290">→</text><text x="788" y="690" class="metric" fill="#4D8F88">767.2</text><text x="947" y="690" class="metric" fill="#E1785D">8</text><text x="977" y="690" class="metric" fill="#8A9290">→</text><text x="1010" y="690" class="metric" fill="#4D8F88">16</text><text x="672" y="738" class="metric-label" >MATCH RETENTION</text><text x="1128" y="738" class="retention" text-anchor="end">99.3%</text><rect x="672" y="770" width="456" height="12" rx="6" fill="#E8E5DE"/><rect x="672" y="770" width="452.87" height="12" rx="6" fill="#4D8F88"/><g filter="url(#shadow)"><rect x="1220" y="205" width="520" height="620" rx="25" fill="#FCFBF8" stroke="#DCD9D2"/></g><rect x="1220" y="205" width="520" height="7" rx="3.5" fill="#4D8F88" opacity="0.92"/><text x="1252" y="247" class="panel-label" >COMBINED STRESS</text><text x="1252" y="286" class="panel-title" >1,280² · K=3,584</text><line x1="1346.00" y1="342" x2="1346.00" y2="592" stroke="#E4E1DA" stroke-width="1"/><text x="1346.0" y="329" class="tick" text-anchor="middle">70%</text><line x1="1455.67" y1="342" x2="1455.67" y2="592" stroke="#E4E1DA" stroke-width="1"/><text x="1455.6666666666667" y="329" class="tick" text-anchor="middle">80%</text><line x1="1565.33" y1="342" x2="1565.33" y2="592" stroke="#E4E1DA" stroke-width="1"/><text x="1565.3333333333335" y="329" class="tick" text-anchor="middle">90%</text><line x1="1675.00" y1="342" x2="1675.00" y2="592" stroke="#E4E1DA" stroke-width="1"/><text x="1675.0" y="329" class="tick" text-anchor="middle">100%</text><text x="1252" y="398" class="threshold" >@1 px</text><line x1="1346" y1="392" x2="1675" y2="392" stroke="#EEEAE3" stroke-width="2"/><path d="M1391.64 385 L1380.14 399" stroke="#A6AEAC" stroke-width="2" stroke-linecap="round"/><circle cx="1391.64" cy="385" r="7" fill="#E1785D" stroke="#FCFBF8" stroke-width="2"/><path d="M1380.14 391.00 L1388.14 399.00 L1380.14 407.00 L1372.14 399.00 Z" fill="#4D8F88" stroke="#FCFBF8" stroke-width="2"/><text x="1391.638799174035" y="373" class="point-value" fill="#E1785D" text-anchor="middle">74.16%</text><text x="1380.1369597317116" y="422" class="point-value" fill="#4D8F88" text-anchor="middle">73.11%</text><text x="1252" y="482" class="threshold" >@3 px</text><line x1="1346" y1="476" x2="1675" y2="476" stroke="#EEEAE3" stroke-width="2"/><path d="M1645.86 469 L1644.76 483" stroke="#A6AEAC" stroke-width="2" stroke-linecap="round"/><circle cx="1645.86" cy="469" r="7" fill="#E1785D" stroke="#FCFBF8" stroke-width="2"/><path d="M1644.76 475.00 L1652.76 483.00 L1644.76 491.00 L1636.76 483.00 Z" fill="#4D8F88" stroke="#FCFBF8" stroke-width="2"/><text x="1645.8573622068088" y="457" class="point-value" fill="#E1785D" text-anchor="middle">97.34%</text><text x="1644.7575049428135" y="506" class="point-value" fill="#4D8F88" text-anchor="middle">97.24%</text><text x="1252" y="566" class="threshold" >@5 px</text><line x1="1346" y1="560" x2="1675" y2="560" stroke="#EEEAE3" stroke-width="2"/><path d="M1669.35 553 L1669.22 567" stroke="#A6AEAC" stroke-width="2" stroke-linecap="round"/><circle cx="1669.35" cy="553" r="7" fill="#E1785D" stroke="#FCFBF8" stroke-width="2"/><path d="M1669.22 559.00 L1677.22 567.00 L1669.22 575.00 L1661.22 567.00 Z" fill="#4D8F88" stroke="#FCFBF8" stroke-width="2"/><text x="1669.3481340781136" y="541" class="point-value" fill="#E1785D" text-anchor="middle">99.48%</text><text x="1669.223806216683" y="590" class="point-value" fill="#4D8F88" text-anchor="middle">99.47%</text><line x1="1252" y1="617" x2="1708" y2="617" stroke="#E2DED7"/><text x="1252" y="651" class="metric-label" >MEAN MATCHES</text><text x="1527" y="651" class="metric-label" >ZERO-MATCH PAIRS</text><text x="1252" y="690" class="metric" fill="#E1785D">1007.3</text><text x="1335" y="690" class="metric" fill="#8A9290">→</text><text x="1368" y="690" class="metric" fill="#4D8F88">994.5</text><text x="1527" y="690" class="metric" fill="#E1785D">4</text><text x="1557" y="690" class="metric" fill="#8A9290">→</text><text x="1590" y="690" class="metric" fill="#4D8F88">11</text><text x="1252" y="738" class="metric-label" >MATCH RETENTION</text><text x="1708" y="738" class="retention" text-anchor="end">98.7%</text><rect x="1252" y="770" width="456" height="12" rx="6" fill="#E8E5DE"/><rect x="1252" y="770" width="450.20" height="12" rx="6" fill="#4D8F88"/></svg>