<svg xmlns="http://www.w3.org/2000/svg" width="1600" height="800" viewBox="0 0 1600 800" role="img" aria-labelledby="title description"><title id="title">Post-optimization ORT–TensorRT FP16 speedup heatmap</title><desc id="description">Median inference speedup of the optimized ONNX Runtime TensorRT deployment over the half-precision torch.compile baseline across four square input sizes and seven keypoint counts on MegaDepth-1500. All 28 cells are faster, with a matrix median of 2.67 times.</desc><defs>
          <style>
            text { font-family: Inter, ui-sans-serif, system-ui, -apple-system, BlinkMacSystemFont, "Segoe UI", sans-serif; }
            .eyebrow { font-size: 15px; font-weight: 500; letter-spacing: 2.1px; fill: #747C7A; }
            .title { font-size: 43px; font-weight: 500; letter-spacing: -1.15px; fill: #171A1B; }
            .subtitle { font-size: 19px; font-weight: 400; fill: #66706E; }
            .axis-title { font-size: 14px; font-weight: 500; letter-spacing: 1.45px; fill: #747C7A; }
            .tick { font-size: 18px; font-weight: 500; fill: #4E5755; }
            .value { font-size: 27px; font-weight: 500; letter-spacing: -0.3px; }
            .legend { font-size: 15px; font-weight: 400; fill: #66706E; }
          </style>
          <filter id="cell-shadow" x="-15%" y="-20%" width="130%" height="150%">
            <feDropShadow dx="0" dy="4" stdDeviation="7" flood-color="#1E2524" flood-opacity="0.055"/>
          </filter>
          <linearGradient id="speed-gradient" x1="0" x2="1">
            <stop offset="0" stop-color="#EFECE5"/>
            <stop offset="100%" stop-color="#408079"/>
          </linearGradient>
        </defs><rect width="1600" height="800" fill="#F4F2ED"/><path d="M0 700 C350 660, 720 755, 1110 700 S1470 660, 1600 692 L1600 800 L0 800 Z" fill="#ECE9E2"/><circle cx="1482" cy="70" r="154" fill="#E6ECEA" opacity="0.68"/><circle cx="1512" cy="42" r="69" fill="#F2E5DF" opacity="0.82"/><text x="62" y="62" class="eyebrow">AFTER GRAPH OPTIMIZATION</text><text x="62" y="111" class="title">Optimized ORT–TensorRT speedup</text><text x="62" y="148" class="subtitle">FP16 · MegaDepth-1500 · torch.compile median ÷ ORT–TensorRT median</text><text x="220" y="193" class="axis-title" text-anchor="end">INPUT SIZE</text><text x="335.0" y="690" class="tick" text-anchor="middle">512</text><text x="515.0" y="690" class="tick" text-anchor="middle">1,024</text><text x="695.0" y="690" class="tick" text-anchor="middle">1,536</text><text x="875.0" y="690" class="tick" text-anchor="middle">2,048</text><text x="1055.0" y="690" class="tick" text-anchor="middle">2,560</text><text x="1235.0" y="690" class="tick" text-anchor="middle">3,072</text><text x="1415.0" y="690" class="tick" text-anchor="middle">3,584</text><text x="220" y="276.0" class="tick" text-anchor="end">512²</text><g filter="url(#cell-shadow)"><rect x="250" y="220" width="170" height="100" rx="18" fill="#BFCEC7"/></g><text x="335.0" y="279.0" class="value" fill="#202423" text-anchor="middle">1.40×</text><g filter="url(#cell-shadow)"><rect x="430" y="220" width="170" height="100" rx="18" fill="#A5BEB7"/></g><text x="515.0" y="279.0" class="value" fill="#202423" text-anchor="middle">1.72×</text><g filter="url(#cell-shadow)"><rect x="610" y="220" width="170" height="100" rx="18" fill="#88ACA5"/></g><text x="695.0" y="279.0" class="value" fill="#202423" text-anchor="middle">2.13×</text><g filter="url(#cell-shadow)"><rect x="790" y="220" width="170" height="100" rx="18" fill="#76A19A"/></g><text x="875.0" y="279.0" class="value" fill="#202423" text-anchor="middle">2.42×</text><g filter="url(#cell-shadow)"><rect x="970" y="220" width="170" height="100" rx="18" fill="#88ADA6"/></g><text x="1055.0" y="279.0" class="value" fill="#202423" text-anchor="middle">2.13×</text><g filter="url(#cell-shadow)"><rect x="1150" y="220" width="170" height="100" rx="18" fill="#41817A"/></g><text x="1235.0" y="279.0" class="value" fill="#FCFBF8" text-anchor="middle">3.34×</text><g filter="url(#cell-shadow)"><rect x="1330" y="220" width="170" height="100" rx="18" fill="#408079"/></g><text x="1415.0" y="279.0" class="value" fill="#FCFBF8" text-anchor="middle">3.36×</text><text x="220" y="388.0" class="tick" text-anchor="end">768²</text><g filter="url(#cell-shadow)"><rect x="250" y="332" width="170" height="100" rx="18" fill="#AEC4BD"/></g><text x="335.0" y="391.0" class="value" fill="#202423" text-anchor="middle">1.59×</text><g filter="url(#cell-shadow)"><rect x="430" y="332" width="170" height="100" rx="18" fill="#9FBBB4"/></g><text x="515.0" y="391.0" class="value" fill="#202423" text-anchor="middle">1.79×</text><g filter="url(#cell-shadow)"><rect x="610" y="332" width="170" height="100" rx="18" fill="#92B3AC"/></g><text x="695.0" y="391.0" class="value" fill="#202423" text-anchor="middle">1.98×</text><g filter="url(#cell-shadow)"><rect x="790" y="332" width="170" height="100" rx="18" fill="#8CAFA8"/></g><text x="875.0" y="391.0" class="value" fill="#202423" text-anchor="middle">2.07×</text><g filter="url(#cell-shadow)"><rect x="970" y="332" width="170" height="100" rx="18" fill="#7BA59E"/></g><text x="1055.0" y="391.0" class="value" fill="#202423" text-anchor="middle">2.33×</text><g filter="url(#cell-shadow)"><rect x="1150" y="332" width="170" height="100" rx="18" fill="#659790"/></g><text x="1235.0" y="391.0" class="value" fill="#FCFBF8" text-anchor="middle">2.70×</text><g filter="url(#cell-shadow)"><rect x="1330" y="332" width="170" height="100" rx="18" fill="#659790"/></g><text x="1415.0" y="391.0" class="value" fill="#FCFBF8" text-anchor="middle">2.70×</text><text x="220" y="500.0" class="tick" text-anchor="end">1,024²</text><g filter="url(#cell-shadow)"><rect x="250" y="444" width="170" height="100" rx="18" fill="#6F9D96"/></g><text x="335.0" y="503.0" class="value" fill="#202423" text-anchor="middle">2.53×</text><g filter="url(#cell-shadow)"><rect x="430" y="444" width="170" height="100" rx="18" fill="#80A7A0"/></g><text x="515.0" y="503.0" class="value" fill="#202423" text-anchor="middle">2.26×</text><g filter="url(#cell-shadow)"><rect x="610" y="444" width="170" height="100" rx="18" fill="#659790"/></g><text x="695.0" y="503.0" class="value" fill="#FCFBF8" text-anchor="middle">2.70×</text><g filter="url(#cell-shadow)"><rect x="790" y="444" width="170" height="100" rx="18" fill="#63968F"/></g><text x="875.0" y="503.0" class="value" fill="#FCFBF8" text-anchor="middle">2.73×</text><g filter="url(#cell-shadow)"><rect x="970" y="444" width="170" height="100" rx="18" fill="#5E938C"/></g><text x="1055.0" y="503.0" class="value" fill="#FCFBF8" text-anchor="middle">2.81×</text><g filter="url(#cell-shadow)"><rect x="1150" y="444" width="170" height="100" rx="18" fill="#508A83"/></g><text x="1235.0" y="503.0" class="value" fill="#FCFBF8" text-anchor="middle">3.06×</text><g filter="url(#cell-shadow)"><rect x="1330" y="444" width="170" height="100" rx="18" fill="#588F88"/></g><text x="1415.0" y="503.0" class="value" fill="#FCFBF8" text-anchor="middle">2.92×</text><text x="220" y="612.0" class="tick" text-anchor="end">1,280²</text><g filter="url(#cell-shadow)"><rect x="250" y="556" width="170" height="100" rx="18" fill="#6F9D96"/></g><text x="335.0" y="615.0" class="value" fill="#202423" text-anchor="middle">2.52×</text><g filter="url(#cell-shadow)"><rect x="430" y="556" width="170" height="100" rx="18" fill="#679891"/></g><text x="515.0" y="615.0" class="value" fill="#FCFBF8" text-anchor="middle">2.66×</text><g filter="url(#cell-shadow)"><rect x="610" y="556" width="170" height="100" rx="18" fill="#659790"/></g><text x="695.0" y="615.0" class="value" fill="#FCFBF8" text-anchor="middle">2.69×</text><g filter="url(#cell-shadow)"><rect x="790" y="556" width="170" height="100" rx="18" fill="#679891"/></g><text x="875.0" y="615.0" class="value" fill="#FCFBF8" text-anchor="middle">2.67×</text><g filter="url(#cell-shadow)"><rect x="970" y="556" width="170" height="100" rx="18" fill="#659790"/></g><text x="1055.0" y="615.0" class="value" fill="#FCFBF8" text-anchor="middle">2.69×</text><g filter="url(#cell-shadow)"><rect x="1150" y="556" width="170" height="100" rx="18" fill="#5A9089"/></g><text x="1235.0" y="615.0" class="value" fill="#FCFBF8" text-anchor="middle">2.89×</text><g filter="url(#cell-shadow)"><rect x="1330" y="556" width="170" height="100" rx="18" fill="#63968F"/></g><text x="1415.0" y="615.0" class="value" fill="#FCFBF8" text-anchor="middle">2.73×</text><rect x="1010" y="103" width="360" height="12" rx="6" fill="url(#speed-gradient)"/><circle cx="1010" cy="109" r="5" fill="#FCFBF8" stroke="#7E8583" stroke-width="1.4"/><text x="1010" y="93" class="legend" text-anchor="middle">parity</text><text x="1010" y="138" class="legend">1.00×</text><text x="1370" y="138" class="legend" text-anchor="end">3.36× · faster</text><text x="875.0" y="724" class="axis-title" text-anchor="middle">NUMBER OF KEYPOINTS</text></svg>